<?xml version="1.0" encoding="UTF-8"?>
<svg width="600" height="400" viewBox="0 0 600 400" fill="none" xmlns="http://www.w3.org/2000/svg">
  <rect width="600" height="400" fill="#F5F7FF"/>
  <circle cx="300" cy="200" r="150" fill="#E0E7FF"/>
  
  <!-- Mobile Phone Outline -->
  <rect x="250" y="100" width="100" height="200" rx="10" fill="white" stroke="#0D6EFD" stroke-width="2"/>
  <rect x="270" y="120" width="60" height="10" rx="2" fill="#0D6EFD" fill-opacity="0.6"/>
  
  <!-- Transaction Icons -->
  <circle cx="290" cy="160" r="15" fill="#0D6EFD"/>
  <path d="M285 160L295 160M290 155L290 165" stroke="white" stroke-width="2" stroke-linecap="round"/>
  
  <circle cx="290" cy="200" r="15" fill="#28A745"/>
  <path d="M285 200L295 200" stroke="white" stroke-width="2" stroke-linecap="round"/>
  
  <circle cx="290" cy="240" r="15" fill="#DC3545"/>
  <path d="M285 240L295 240M290 235L290 245" stroke="white" stroke-width="2" stroke-linecap="round"/>
  
  <!-- Currency Symbols -->
  <circle cx="200" cy="150" r="30" fill="white" stroke="#0D6EFD" stroke-width="2"/>
  <text x="190" y="155" font-family="Arial" font-size="20" fill="#0D6EFD">$</text>
  
  <circle cx="200" cy="250" r="30" fill="white" stroke="#0D6EFD" stroke-width="2"/>
  <text x="190" y="255" font-family="Arial" font-size="20" fill="#0D6EFD">€</text>
  
  <circle cx="400" cy="150" r="30" fill="white" stroke="#0D6EFD" stroke-width="2"/>
  <text x="390" y="155" font-family="Arial" font-size="20" fill="#0D6EFD">£</text>
  
  <circle cx="400" cy="250" r="30" fill="white" stroke="#0D6EFD" stroke-width="2"/>
  <text x="390" y="255" font-family="Arial" font-size="20" fill="#0D6EFD">¥</text>
  
  <!-- Connection Lines -->
  <line x1="230" y1="150" x2="270" y2="160" stroke="#0D6EFD" stroke-width="2" stroke-dasharray="4 4"/>
  <line x1="230" y1="250" x2="270" y2="240" stroke="#0D6EFD" stroke-width="2" stroke-dasharray="4 4"/>
  <line x1="370" y1="150" x2="330" y2="160" stroke="#0D6EFD" stroke-width="2" stroke-dasharray="4 4"/>
  <line x1="370" y1="250" x2="330" y2="240" stroke="#0D6EFD" stroke-width="2" stroke-dasharray="4 4"/>
</svg>
