<?xml version="1.0" encoding="UTF-8"?>
<svg width="600" height="400" viewBox="0 0 600 400" fill="none" xmlns="http://www.w3.org/2000/svg">
  <rect width="600" height="400" fill="#F5F7FF"/>
  <rect x="100" y="80" width="400" height="240" rx="8" fill="white" stroke="#E0E7FF" stroke-width="2"/>
  <rect x="120" y="100" width="360" height="40" rx="4" fill="#EBF0FF"/>
  <rect x="120" y="160" width="160" height="140" rx="4" fill="#EBF0FF"/>
  <rect x="300" y="160" width="180" height="60" rx="4" fill="#EBF0FF"/>
  <rect x="300" y="240" width="180" height="60" rx="4" fill="#EBF0FF"/>
  <circle cx="150" cy="120" r="10" fill="#0D6EFD"/>
  <rect x="170" y="115" width="80" height="10" rx="2" fill="#0D6EFD"/>
  <rect x="400" y="115" width="60" height="10" rx="2" fill="#0D6EFD" fill-opacity="0.6"/>
  <rect x="140" y="180" width="120" height="8" rx="2" fill="#0D6EFD" fill-opacity="0.6"/>
  <rect x="140" y="200" width="100" height="8" rx="2" fill="#0D6EFD" fill-opacity="0.4"/>
  <rect x="140" y="220" width="110" height="8" rx="2" fill="#0D6EFD" fill-opacity="0.4"/>
  <rect x="140" y="240" width="90" height="8" rx="2" fill="#0D6EFD" fill-opacity="0.4"/>
  <rect x="140" y="260" width="80" height="8" rx="2" fill="#0D6EFD" fill-opacity="0.4"/>
  <rect x="320" y="180" width="140" height="8" rx="2" fill="#0D6EFD" fill-opacity="0.6"/>
  <rect x="320" y="200" width="120" height="8" rx="2" fill="#0D6EFD" fill-opacity="0.4"/>
  <rect x="320" y="260" width="140" height="8" rx="2" fill="#0D6EFD" fill-opacity="0.6"/>
  <rect x="320" y="280" width="120" height="8" rx="2" fill="#0D6EFD" fill-opacity="0.4"/>
</svg>
